<svg width="47" height="47" viewBox="0 0 47 47" fill="none" xmlns="http://www.w3.org/2000/svg">
<rect width="46.5" height="46.5" rx="23.25" fill="#BA38FF"/>
<path d="M29.4375 17.0625H17.0625C16.7641 17.0625 16.478 17.181 16.267 17.392C16.056 17.603 15.9375 17.8891 15.9375 18.1875V28.3125C15.9375 28.6109 16.056 28.897 16.267 29.108C16.478 29.319 16.7641 29.4375 17.0625 29.4375H18.004C18.1104 29.4375 18.2147 29.4074 18.3047 29.3505C18.3947 29.2936 18.4667 29.2123 18.5123 29.1162C18.7859 28.5387 19.2177 28.0507 19.7577 27.709C20.2976 27.3673 20.9235 27.1859 21.5625 27.1859C22.2015 27.1859 22.8274 27.3673 23.3673 27.709C23.9073 28.0507 24.3391 28.5387 24.6127 29.1162C24.6583 29.2123 24.7303 29.2936 24.8203 29.3505C24.9103 29.4074 25.0146 29.4375 25.121 29.4375H29.4375C29.7359 29.4375 30.022 29.319 30.233 29.108C30.444 28.897 30.5625 28.6109 30.5625 28.3125V18.1875C30.5625 17.8891 30.444 17.603 30.233 17.392C30.022 17.181 29.7359 17.0625 29.4375 17.0625ZM21.5625 26.0625C21.1175 26.0625 20.6825 25.9305 20.3125 25.6833C19.9425 25.4361 19.6541 25.0847 19.4838 24.6735C19.3135 24.2624 19.2689 23.81 19.3557 23.3735C19.4425 22.9371 19.6568 22.5362 19.9715 22.2215C20.2862 21.9068 20.6871 21.6925 21.1235 21.6057C21.56 21.5189 22.0124 21.5635 22.4235 21.7338C22.8347 21.9041 23.1861 22.1925 23.4333 22.5625C23.6805 22.9325 23.8125 23.3675 23.8125 23.8125C23.8125 24.4092 23.5754 24.9815 23.1535 25.4035C22.7315 25.8254 22.1592 26.0625 21.5625 26.0625ZM29.4375 28.3125H25.4599C25.2147 27.8897 24.9022 27.5097 24.5346 27.1875H27.75C27.8992 27.1875 28.0423 27.1282 28.1477 27.0227C28.2532 26.9173 28.3125 26.7742 28.3125 26.625V19.875C28.3125 19.7258 28.2532 19.5827 28.1477 19.4773C28.0423 19.3718 27.8992 19.3125 27.75 19.3125H18.75C18.6008 19.3125 18.4577 19.3718 18.3523 19.4773C18.2468 19.5827 18.1875 19.7258 18.1875 19.875V26.625C18.1874 26.7498 18.2288 26.871 18.3052 26.9696C18.3816 27.0683 18.4886 27.1387 18.6094 27.1699C18.2334 27.4957 17.9142 27.8819 17.6651 28.3125H17.0625V18.1875H29.4375V28.3125Z" fill="white"/>
</svg>
