<svg width="47" height="47" viewBox="0 0 47 47" fill="none" xmlns="http://www.w3.org/2000/svg">
<rect width="46.5" height="46.5" rx="23.25" fill="#56A836"/>
<path d="M26.6248 28.8215C27.0128 28.6686 27.3889 28.4869 27.7498 28.278V31.1249C27.7498 31.2741 27.6906 31.4172 27.5851 31.5227C27.4796 31.6281 27.3365 31.6874 27.1873 31.6874C27.0381 31.6874 26.8951 31.6281 26.7896 31.5227C26.6841 31.4172 26.6248 31.2741 26.6248 31.1249V28.8215ZM27.4517 22.6037L23.5142 20.5035C23.3828 20.4364 23.2304 20.4236 23.0896 20.4678C22.9489 20.5121 22.8312 20.6098 22.7619 20.74C22.6925 20.8702 22.6771 21.0225 22.7189 21.1639C22.7607 21.3054 22.8565 21.4247 22.9854 21.4963L26.2733 23.2499L27.4686 22.6129L27.4517 22.6037ZM31.9517 20.5035L23.5142 16.0035C23.4328 15.9602 23.342 15.9375 23.2498 15.9375C23.1576 15.9375 23.0668 15.9602 22.9854 16.0035L14.5479 20.5035C14.458 20.5515 14.3827 20.623 14.3302 20.7104C14.2777 20.7979 14.25 20.8979 14.25 20.9999C14.25 21.1019 14.2777 21.2019 14.3302 21.2894C14.3827 21.3768 14.458 21.4484 14.5479 21.4963L16.4998 22.5376V25.9422C16.4992 26.2185 16.6009 26.4852 16.7853 26.691C17.7064 27.7169 19.7701 29.4374 23.2498 29.4374C24.4036 29.4469 25.5488 29.238 26.6248 28.8215V23.4376L26.2733 23.2499L23.2498 24.8622L17.3316 21.703L16.0076 20.9999L23.2498 17.1376L30.492 20.9999L29.1715 21.703H29.1673L27.4686 22.6129C27.5541 22.6623 27.6251 22.7333 27.6745 22.8188C27.7239 22.9044 27.7498 23.0014 27.7498 23.1001V28.278C28.4833 27.8545 29.1462 27.3191 29.7144 26.691C29.8987 26.4852 30.0004 26.2185 29.9998 25.9422V22.5376L31.9517 21.4963C32.0417 21.4484 32.117 21.3768 32.1694 21.2894C32.2219 21.2019 32.2496 21.1019 32.2496 20.9999C32.2496 20.8979 32.2219 20.7979 32.1694 20.7104C32.117 20.623 32.0417 20.5515 31.9517 20.5035Z" fill="white"/>
</svg>
