<svg width="47" height="47" viewBox="0 0 47 47" fill="none" xmlns="http://www.w3.org/2000/svg">
<rect width="46.5" height="46.5" rx="23.25" fill="#FF7369"/>
<path d="M21 22.2579L21.7777 23.8125H20.2223L21 22.2579ZM30.5625 18.1875V29.4375C30.5626 29.5334 30.5381 29.6278 30.4914 29.7116C30.4447 29.7954 30.3774 29.8659 30.2958 29.9163C30.2142 29.9668 30.1211 29.9955 30.0252 29.9998C29.9294 30.0041 29.8341 29.9839 29.7483 29.9409L27.75 28.9411L25.7517 29.9409C25.6736 29.98 25.5874 30.0004 25.5 30.0004C25.4126 30.0004 25.3264 29.98 25.2483 29.9409L23.25 28.9411L21.2517 29.9409C21.1736 29.98 21.0874 30.0004 21 30.0004C20.9126 30.0004 20.8264 29.98 20.7483 29.9409L18.75 28.9411L16.7517 29.9409C16.6659 29.9839 16.5706 30.0041 16.4748 29.9998C16.3789 29.9955 16.2858 29.9668 16.2042 29.9163C16.1226 29.8659 16.0553 29.7954 16.0086 29.7116C15.9619 29.6278 15.9374 29.5334 15.9375 29.4375V18.1875C15.9375 17.8891 16.056 17.603 16.267 17.392C16.478 17.181 16.7641 17.0625 17.0625 17.0625H29.4375C29.7359 17.0625 30.022 17.181 30.233 17.392C30.444 17.603 30.5625 17.8891 30.5625 18.1875ZM23.7534 25.2483L21.5034 20.7483C21.4568 20.6547 21.385 20.5759 21.296 20.5209C21.2071 20.4659 21.1046 20.4367 21 20.4367C20.8954 20.4367 20.7929 20.4659 20.704 20.5209C20.615 20.5759 20.5432 20.6547 20.4966 20.7483L18.2466 25.2483C18.1798 25.3818 18.1688 25.5364 18.216 25.678C18.2632 25.8196 18.3648 25.9367 18.4983 26.0034C18.6318 26.0702 18.7864 26.0812 18.928 26.034C19.0696 25.9868 19.1867 25.8852 19.2534 25.7517L19.6598 24.9375H22.3402L22.7466 25.7517C22.7796 25.8178 22.8254 25.8768 22.8812 25.9252C22.9371 25.9736 23.0019 26.0106 23.072 26.034C23.1421 26.0574 23.2162 26.0667 23.2899 26.0614C23.3636 26.0562 23.4356 26.0365 23.5017 26.0034C23.5678 25.9704 23.6268 25.9246 23.6752 25.8688C23.7236 25.8129 23.7606 25.7481 23.784 25.678C23.8074 25.6079 23.8167 25.5338 23.8114 25.4601C23.8062 25.3864 23.7865 25.3144 23.7534 25.2483ZM28.875 23.25C28.875 23.1008 28.8157 22.9577 28.7102 22.8523C28.6048 22.7468 28.4617 22.6875 28.3125 22.6875H27.1875V21.5625C27.1875 21.4133 27.1282 21.2702 27.0227 21.1648C26.9173 21.0593 26.7742 21 26.625 21C26.4758 21 26.3327 21.0593 26.2273 21.1648C26.1218 21.2702 26.0625 21.4133 26.0625 21.5625V22.6875H24.9375C24.7883 22.6875 24.6452 22.7468 24.5398 22.8523C24.4343 22.9577 24.375 23.1008 24.375 23.25C24.375 23.3992 24.4343 23.5423 24.5398 23.6477C24.6452 23.7532 24.7883 23.8125 24.9375 23.8125H26.0625V24.9375C26.0625 25.0867 26.1218 25.2298 26.2273 25.3352C26.3327 25.4407 26.4758 25.5 26.625 25.5C26.7742 25.5 26.9173 25.4407 27.0227 25.3352C27.1282 25.2298 27.1875 25.0867 27.1875 24.9375V23.8125H28.3125C28.4617 23.8125 28.6048 23.7532 28.7102 23.6477C28.8157 23.5423 28.875 23.3992 28.875 23.25Z" fill="white"/>
</svg>
